PathFileType	4	(X/Y/Z)	SUBJ63_2_walk_RCNL2025.trc
DataRate	CameraRate	NumFrames	NumMarkers	Units	OrigDataRate	OrigDataStartFrame	OrigNumFrames
100	100	5	25	mm	100	237	270
Frame#	Time	R_Shoulder			L_Shoulder			C7			J_Notch			R_Elbow			L_Elbow			R_Wrist			L_Wrist			R_Asis			L_Asis			Sacral			Thoracic			Sternum			R_Thigh_Lateral			R_Knee_Lateral			R_Shank_Lateral			R_Ankle_Lateral			R_Heel			R_Toe			L_Thigh_Lateral			L_Knee_Lateral			L_Shank_Lateral			L_Ankle_Lateral			L_Heel			L_Toe		
		X1	Y1	Z1	X2	Y2	Z2	X3	Y3	Z3	X4	Y4	Z4	X5	Y5	Z5	X6	Y6	Z6	X7	Y7	Z7	X8	Y8	Z8	X9	Y9	Z9	X10	Y10	Z10	X11	Y11	Z11	X12	Y12	Z12	X13	Y13	Z13	X14	Y14	Z14	X15	Y15	Z15	X16	Y16	Z16	X17	Y17	Z17	X18	Y18	Z18	X19	Y19	Z19	X20	Y20	Z20	X21	Y21	Z21	X22	Y22	Z22	X23	Y23	Z23	X24	Y24	Z24	X25	Y25	Z25
237	2.36000000	2006.566040	1264.169434	212.138138	2009.187866	1277.536621	-119.687538	1927.000366	1334.368774	40.059586	2051.121094	1226.782104	42.252445	1942.285645	988.536011	316.270905	1986.461182	982.621582	-221.939896	1994.104614	770.108093	368.407135	2128.812866	806.614105	-244.426254	2071.651123	831.354126	152.703995	2058.514404	807.577820	-94.897034	1841.057861	822.965576	32.383251	1842.661255	1152.152222	37.774624	2098.900879	1047.144165	41.311897	2082.438477	490.572632	204.691895	2090.256592	437.206177	154.330460	2081.982666	255.412079	193.820923	2061.150879	51.228664	107.619766	2013.767822	52.956944	58.688770	2175.673828	38.671593	98.322044	1987.392212	439.472290	-199.931381	1990.160522	410.527313	-134.918640	1844.198486	295.937286	-158.474335	1678.678955	201.941055	-74.561180	1661.169556	239.512482	-15.064596	1712.077637	86.657074	-79.004608
238	2.37000000	2023.452148	1266.545410	212.114944	2022.914307	1279.420410	-119.775200	1942.387695	1336.944458	40.607937	2066.073486	1228.958252	42.017967	1960.752197	990.855835	316.836243	1996.200439	984.393494	-221.237503	2014.245789	772.462860	367.623413	2133.040405	804.279846	-246.666939	2086.267334	833.223572	153.062515	2072.528564	810.320068	-94.773582	1854.900146	826.045288	34.576153	1857.579590	1154.926636	39.487583	2113.146484	1049.011963	40.763245	2090.111084	490.908691	204.888657	2095.628174	437.220825	154.391968	2084.092773	255.119797	193.717316	2061.154785	51.298218	107.430908	2013.822510	53.167599	58.706261	2175.711426	38.812256	98.207726	2015.729126	442.388153	-199.777573	2019.345825	413.628296	-134.736984	1875.182739	298.577393	-158.598846	1710.488403	202.882767	-75.434692	1691.579712	238.571182	-14.963555	1747.003784	89.556419	-83.152718
239	2.38000000	2040.213379	1269.063354	211.940735	2036.398193	1281.344604	-120.000359	1957.615112	1339.547852	41.010918	2080.869629	1231.225464	41.613213	1979.304565	993.353821	317.380005	2005.566650	986.239746	-220.584656	2034.631104	775.027710	366.688553	2136.710571	802.217102	-248.998627	2100.731445	834.986084	153.388000	2086.558594	813.417297	-94.868904	1868.703613	829.266663	36.598629	1872.386353	1157.697021	41.176926	2127.238770	1051.035522	40.064835	2097.521484	491.316315	204.940262	2100.623047	437.313751	154.343979	2086.072266	254.939285	193.550858	2061.180420	51.384167	107.260429	2013.818237	53.320572	58.822926	2175.739746	38.917477	98.140495	2043.479248	446.150757	-199.350540	2048.016602	417.588959	-134.303802	1906.259644	301.299835	-158.599228	1743.698608	201.610153	-76.263893	1722.836426	235.379349	-15.123788	1784.655762	90.831474	-86.372986
240	2.39000000	2056.823730	1271.682129	211.636917	2049.639160	1283.275879	-120.332573	1972.674072	1342.106201	41.292187	2095.524414	1233.538452	41.059555	1997.918823	995.967163	317.902802	2014.581543	988.129333	-219.963348	2055.244995	777.760132	365.630173	2139.896484	800.446899	-251.406189	2115.040039	836.614746	153.756561	2100.624756	816.810364	-95.053116	1882.518677	832.503906	38.379654	1887.101196	1160.385986	42.842110	2141.222168	1053.193970	39.251026	2104.601318	491.741821	204.878296	2105.288086	437.465851	154.221344	2087.929688	254.883331	193.356735	2061.252930	51.509594	107.105759	2013.768188	53.449963	59.004074	2175.769775	38.980003	98.112419	2070.601318	450.525330	-198.678558	2076.052490	422.199493	-133.626511	1937.312500	303.918304	-158.496277	1778.144531	198.213013	-77.028053	1754.904541	230.079575	-15.542618	1824.567139	90.530876	-88.591194
241	2.40000000	2073.259521	1274.341797	211.227844	2062.638428	1285.167114	-120.748840	1987.562378	1344.547852	41.482975	2110.053223	1235.839478	40.378254	2016.575928	998.621826	318.411102	2023.279175	990.017395	-219.357086	2076.075562	780.604095	364.485657	2142.673828	798.962860	-253.879036	2129.192383	838.088135	154.227615	2114.748291	820.416321	-95.185905	1896.377808	835.641235	39.859848	1901.740601	1162.917847	44.488155	2155.140625	1055.447876	38.354366	2111.302246	492.147308	204.737778	2109.647705	437.655884	154.054504	2089.633789	254.952271	193.159256	2061.385010	51.691792	106.962234	2013.697876	53.600735	59.179787	2175.807861	39.001751	98.117310	2097.041992	455.268738	-197.783127	2103.354736	427.232910	-132.710129	1968.264404	306.206238	-158.292053	1813.708862	192.858292	-77.692848	1787.805298	222.833801	-16.159248	1866.319946	88.813713	-89.854645
